Patient4_TMGait_0pt2_01_right_06_EMG.mot
version=1
nRows=26
nColumns=33
inDegrees=no
endheader
time	1LAddLong	2LGlutMax	3LGlutMed	4LIliopsoas	5LSemiMemb	6LBicFemLong	7LRecFem	8LVastMed	9LVastLat	10LGasMed	11LTibAnt	12lTibPost	13LPeroneusLong	14LSol	15LExtDigLong	16LFlexDigLong	17RAddLong	18RGlutMax	19RGlutMed	20RIliopsoas	21RSemiMemb	22RBicFemLong	23RRecFem	24RVastMed	25RVastLat	26RGasMed	27RTibAnt	28RTibPost	29RPeroneusLong	30RSol	31RExtDigLong	32RFlexDigLong
12.307	0.004883	-0.002594	-0.032501	0.011139	-0.041199	0.012054	0.022278	0.005646	0.011444	0.019073	0.04837	0.007477	-0.015717	-0.036011	0.29678	0.010223	0.007629	-0.23712	-0.19669	0.054321	0.053406	0.077515	0.13107	0.002594	0.21133	-0.076599	0.020752	-0.005798	-0.25559	-0.16571	0	-0.011139
12.308	0.005341	0.002136	-0.032196	0.001831	0.015717	0.014648	0.00412	0.003815	0.00412	0.023499	0.009613	0.00412	-0.021515	-0.081787	0.32532	0.003357	0.03952	-0.21545	-0.00885	0.029602	-0.088654	0.14786	0.10071	-0.080872	0.18753	-0.018768	-0.13184	-0.013123	-0.085907	-0.17136	0.000153	-0.014343
12.309	-0.001068	0.035553	-0.033875	0.006409	0.046082	0.001373	0.0354	0.002899	0.006866	0.034485	0.029144	0.003967	-0.0383	-0.15961	0.35065	0.002899	0.050507	-0.25375	0.4158	-0.005951	-0.41901	0.22736	-0.036163	-0.12894	0.1767	0.000153	-0.19073	-0.016937	-0.014648	-0.084839	-0.002289	-0.012665
12.31	-0.003052	0.020142	-0.02533	-0.001831	-0.003815	-0.011139	0.026093	0.007019	0.020905	0.032349	0.032501	0.003204	-0.016022	-0.15305	0.26199	0.005341	0.02182	-0.28503	0.33341	0.029602	-0.43167	0.159	-0.049133	-0.071259	0.22553	0.013733	0.15045	0.023346	-0.071716	-0.085907	-0.009155	-0.019073
12.311	0.009766	0.016937	0.037079	0.002594	-0.018921	0.008087	0.011139	0.000305	0.017242	0.025635	0.054626	0.00412	-0.020142	-0.095825	0.2269	0.001984	-0.000458	-0.32196	-0.032349	0.035706	0.27023	0.054626	0.16922	-0.001678	0.30029	0.00885	0.29984	0.011444	0.11459	-0.037842	-0.00412	-0.011902
12.312	0.000763	0.029602	0.052948	0.023499	0.005798	-0.028381	0.010529	-0.00412	0.028229	0.025635	0.07843	0.008698	-0.021515	-0.055389	0.21515	-0.000305	0.001678	-0.46234	-0.63614	0.030823	0.24933	-0.10193	0.22903	0.18005	0.36026	0.008392	0.23392	0.000153	0.6955	-0.002747	0	-0.013733
12.313	0.005951	0.033264	0.043945	0.004425	0.018616	-0.06897	0.014343	-0.00824	0.027161	0.019379	0.046844	-0.006104	-0.034637	-0.035095	0.17288	0.004578	-0.016479	-0.42893	-0.27435	-0.047607	0.3566	-0.21591	-0.05188	0.43243	0.2182	0.010071	0.47638	0.001831	0.24674	-0.16449	-0.001526	-0.021362
12.314	0.002747	0.039368	0.009918	0.015259	0.00946	-0.053558	0.018311	-0.000916	0.024261	0.016632	-0.002136	0.001831	-0.013275	-0.043793	0.1564	0.005188	-0.013123	-0.40558	0.42389	-0.01236	0.13397	-0.31097	-0.1236	0.38803	-0.13168	0.009308	0.1828	0.001221	-0.97412	-0.1474	-0.002899	-0.022583
12.315	0.002747	0.005798	0.016632	0.017242	0.005493	-0.0354	-0.001373	-0.002136	0.022888	0.029755	0.009308	0.001221	-0.011749	-0.031738	0.16266	-0.000305	-0.018311	-0.43167	0.746	-0.00412	-0.042877	-0.26016	-0.22018	0.30121	-0.44418	0.002136	0.31784	-0.003052	-0.98206	-0.086975	-0.007935	-0.014648
12.316	0.001831	0.006866	0.011902	0.014343	-0.000305	0.056763	-0.000916	-0.004883	0.0354	0.025024	0.027771	0.00473	-0.016327	-0.035248	0.081635	0.011597	-0.047913	-0.43701	-0.090942	-0.019073	-0.070343	-0.21484	-0.2179	0.21866	-0.20844	0.006714	0.57617	-0.001221	-0.51315	-0.13397	-0.004578	-0.016022
12.317	0.000458	-0.002594	-0.010529	0.016479	-0.016022	0.11795	0.006866	-0.001831	0.039215	0.02121	0.036316	-0.001984	-0.026093	-0.077057	0.029144	-0.002289	-0.007172	-0.37994	-0.75775	-0.061798	0.081329	-0.20767	-0.085602	-0.17624	-0.10361	0.001831	0.33524	-0.008698	0.29114	-0.16495	-0.007477	-0.012054
12.318	-0.010834	0.007324	0.025787	0.004578	-0.028992	-0.022888	-0.003204	-0.001831	0.044098	0.022125	0.036163	0.005951	-0.024872	0.025787	0.019073	0.002136	0.020599	-0.32806	-0.31754	-0.034637	0.021057	-0.11612	0.015564	-0.46448	-0.1471	-0.020142	0.09079	-0.007782	0.19867	-0.20493	-0.002289	-0.011139
12.319	0.002899	-0.007172	0.00473	0.024261	-0.026245	-0.074615	0.004883	0.004578	0.037079	0.027161	0.026855	-0.002136	-0.008392	0.023804	0.011902	-0.005798	0.050201	-0.33203	0.27313	-0.020905	-0.1738	-0.00885	0.13931	-0.58212	-0.22278	-0.021973	-0.12131	0.010223	0.038757	-0.19196	-0.006409	-0.001984
12.32	0.007629	0.003815	-0.027618	0.013733	-0.014954	-0.1149	0.006104	0.005951	0.043335	0.016174	0.023651	-0.000153	-0.003967	-0.013275	0.020599	0.003204	0.063934	-0.32486	-0.39154	-0.002594	-0.070038	-0.020752	0.046234	-0.51865	-0.23895	-0.014648	-0.25162	-0.005493	0.035858	-0.067291	-0.004272	-0.006104
12.321	0.010376	-0.037384	-0.009918	0.015259	-0.013123	-0.1178	0.010223	0.003357	0.037537	0.016785	0.028229	0.003052	-0.010223	-0.00885	0.009918	-0.001678	0.047302	-0.33737	-0.53879	0.051117	0.2092	-0.070496	0.038605	-0.32989	-0.22827	-0.008087	-0.34256	-0.001068	-0.047607	-0.008087	-0.003204	-0.015259
12.322	0.009308	-0.011292	-0.037079	0.001373	0.00824	-0.10147	0.00473	-0.001984	0.033264	0.0177	0.026245	0.005341	-0.016022	-0.010986	0.002289	-0.00061	0.009308	-0.34729	-0.26504	0.018311	0.25055	-0.067596	-0.062714	-0.21072	-0.023804	-0.002441	-0.3775	-0.001068	0.022583	0.078278	-0.002747	-0.019226
12.323	0.002747	0.023499	-0.016632	-0.004272	0.030823	0.034637	0.003967	-0.00351	0.038452	0.010986	0.032806	0.005188	-0.001678	0.009155	0.012054	-0.00061	-0.027313	-0.3273	0.23102	-0.002289	-0.038147	-0.021362	0.006866	-0.16754	0.20737	0.002289	-0.18341	-0.001373	-0.03006	0.075073	-0.004425	-0.016632
12.324	0.00824	-0.007782	-0.037689	-0.004578	0.021667	0.29678	0.002899	-0.001984	0.034637	0.007629	0.026855	0.001831	-0.031433	0.001984	0.005341	0.000153	-0.041504	-0.36591	-0.1329	-0.016937	0.011139	0.062408	0.001984	0.093079	0.25482	-0.002136	0.2005	-0.005798	-0.12192	-0.008545	-0.001221	-0.019684
12.325	-0.001678	-0.005035	-0.084381	0.001984	0.003204	0.25055	0.005493	0.007629	0.028229	0.009308	0.026398	0.004272	-0.003967	0.009613	0.002899	-0.003357	-0.000916	-0.34286	-0.055847	0.006866	-0.072021	0.081024	0.020447	0.14587	0.27374	0.003815	0.45715	-0.001526	-0.032959	-0.039673	0	-0.013733
12.326	-0.007629	0.01358	-0.11673	0.018768	-0.001678	0.10834	0.002441	0.002747	0.028992	0.010529	0.027161	-0.005035	-0.009003	0.012054	0.005188	-0.000305	0.009003	-0.25162	-0.11505	0.032501	-0.027466	0.10819	-0.15335	0.24963	0.26276	-0.001526	0.63858	-0.005341	0.036011	-0.031586	0.001831	-0.011444
12.327	0.004578	0.011902	-0.11978	0.007477	-0.007019	-0.32516	0.013123	0.015564	0.039215	0.011749	0.022278	0.005188	0.001068	0.003204	-0.010834	0.002136	0.006409	-0.26474	0.052795	-0.00473	-0.006104	0.14908	-0.22018	0.27268	0.21896	-0.023651	1.2076	0.001373	0.090332	-0.13901	-0.004425	-0.0177
12.328	0.000305	0.013275	0.018005	-0.001373	-0.005035	-0.44388	0.028687	0.004883	0.037079	0.007782	0.027161	-0.001678	0.000305	0.011597	-0.02594	-0.003815	0.01297	-0.2565	0.045929	-0.055084	-0.040131	0.21729	-0.1506	0.2739	0.19638	-0.031586	0.48294	-0.003815	0.15045	-0.20035	-0.006409	-0.021362
12.329	0.007935	-0.001984	0.10941	0.007629	0.004425	-0.29633	0.026398	-0.001068	0.049133	0.00946	0.027161	0.009155	-0.031586	0.006561	-0.018005	-0.00061	-0.037079	-0.26901	-0.040588	-0.084229	-0.21805	0.25909	-0.1944	0.33875	0.10147	-0.006561	-1.033	-0.002136	0.2034	-0.37476	-0.008392	-0.027466
12.33	0.00473	-0.003662	0.12894	-0.007629	-0.00061	-0.037842	0.019073	0.000763	0.049744	0.003052	0.029755	0.003357	-0.019684	0.023956	-0.00885	-0.002747	-0.011902	-0.24918	-0.10132	-0.13016	-0.1973	0.1506	-0.17822	0.2121	0.05127	-0.017548	-0.68024	0.000763	0.071106	-0.35507	-0.00473	-0.027924
12.331	0.007477	-0.032501	0.082092	0.000916	0.007935	0.10559	0.013733	-0.000458	0.03891	0.005493	0.025787	0.002289	-0.014648	0.019226	-0.005035	-0.006256	0.028687	-0.28183	-0.011902	-0.18402	-0.085297	0.052643	0.018158	0.057983	0.015259	-0.012207	-0.48874	-0.000458	0.055237	-0.1059	-0.005341	-0.019379
12.332	0.004883	-0.033264	0.071564	0.003052	-0.013275	0.11353	0.013275	-0.00351	0.033875	0.007019	0.032959	0.003204	-0.012665	0.035095	-0.006409	-0.008087	0.037231	-0.23956	-0.063477	-0.071259	0.06485	-0.11688	0.000305	-0.044708	0.092926	-0.005188	-0.23499	0.001373	-0.009613	0.22598	-0.001678	-0.010681
